<?xml version="1.0" encoding="UTF-8" standalone="no"?>
<svg
   class="svg-icon"
   style="width: 1em;height: 1em;vertical-align: middle;fill: currentColor;overflow: hidden;"
   viewBox="0 0 1024 1024"
   version="1.1"
   id="svg1"
   sodipodi:docname="email.svg"
   inkscape:version="1.4.2 (f4327f4, 2025-05-13)"
   xmlns:inkscape="http://www.inkscape.org/namespaces/inkscape"
   xmlns:sodipodi="http://sodipodi.sourceforge.net/DTD/sodipodi-0.dtd"
   xmlns="http://www.w3.org/2000/svg"
   xmlns:svg="http://www.w3.org/2000/svg">
  <defs
     id="defs1" />
  <sodipodi:namedview
     id="namedview1"
     pagecolor="#ffffff"
     bordercolor="#000000"
     borderopacity="0.25"
     inkscape:showpageshadow="2"
     inkscape:pageopacity="0.0"
     inkscape:pagecheckerboard="0"
     inkscape:deskcolor="#d1d1d1"
     inkscape:zoom="0.67285156"
     inkscape:cx="62.4209"
     inkscape:cy="362.6357"
     inkscape:current-layer="svg1" />
  <path
     d="M 1024,319.61002 V 842.00001 A 90.352927,89.999998 0 0 1 933.64713,932 H 90.353146 A 90.352927,89.999998 0 0 1 2.1822942e-4,842.00001 V 319.61002 L 375.65757,636.86002 a 210.8235,210 0 0 0 272.68513,0 z M 933.64713,92.00003 a 91.467278,91.109997 0 0 1 32.22587,5.88 89.810809,89.459998 0 0 1 37.8278,27.29999 90.804691,90.449998 0 0 1 13.1915,21.75001 c 3.9153,9.24 6.3247,19.25999 6.927,29.78998 l 0.1807,5.28001 v 30 l -453.36082,385.2 a 90.352927,89.999998 0 0 1 -112.79057,3.57 L 453.36108,597.17001 2.1822942e-4,212.00002 v -30 A 90.051751,89.699998 0 0 1 49.603971,101.66003 a 90.172221,89.819998 0 0 1 40.749175,-9.66 z"
     id="path1"
     style="stroke-width:1.409" />
  <path
     id="path2"
     style="fill:#d44638;fill-opacity:1;stroke-width:1.05091"
     sodipodi:type="inkscape:offset"
     inkscape:radius="1.1822741"
     inkscape:original="M 515.07422 93.261719 C 81.68316 92.993476 78.485879 93.006458 69.697266 95.09375 C 44.128558 101.1663 21.820539 118.7179 10.509766 141.66406 C 2.6299737 157.64978 1.0534796 165.18584 0.3515625 190.21484 L -0.23828125 211.23242 L 186.62695 369.91992 C 289.40236 457.19804 392.90504 545.08841 416.63281 565.23047 C 440.36058 585.37251 462.37372 603.36217 465.55273 605.20703 C 476.93494 611.81246 488.52794 615.7303 502.86133 617.81836 C 508.91899 618.70083 526.62461 617.29316 534.36133 615.31445 C 544.17495 612.80455 555.634 607.45115 563.90625 601.51172 C 567.42579 598.98472 672.34524 510.19139 797.06055 404.19336 L 1023.8164 211.4707 L 1023.3301 189.2832 C 1022.8846 169.00105 1022.5981 166.28268 1020 157.63672 C 1011.2529 128.5286 990.58945 107.07894 961.58398 97 L 951.59961 93.53125 L 515.07422 93.261719 z "
     d="M 515.07422,92.080078 C 298.37868,91.945957 189.23328,91.880672 133.1543,92.111328 105.1148,92.226656 90.346212,92.415395 82.007812,92.707031 73.669413,92.998667 71.636393,93.417876 69.423828,93.943359 43.507239,100.09853 20.926847,117.85597 9.4492188,141.14062 1.5319259,157.20242 -0.12695684,165.1097 -0.83007813,190.18164 l -0.58984377,21.01758 a 1.1823923,1.1823923 0 0 0 0.4160157,0.93359 L 185.86133,370.82031 c 102.77543,87.27814 206.27766,175.16813 230.00586,195.31055 11.86901,10.07537 23.3092,19.61311 32.18359,26.86523 4.4372,3.62606 8.2313,6.68052 11.12305,8.94922 2.89175,2.26871 4.78127,3.70258 5.78515,4.28516 11.50811,6.67849 23.28027,10.65245 37.73243,12.75781 6.56033,0.9557 23.93707,-0.47665 31.96289,-2.5293 9.99055,-2.55515 21.52237,-7.94151 29.9414,-13.98632 0.64193,-0.4609 2.52862,-2.03123 5.98047,-4.91016 3.45185,-2.87893 8.32811,-6.96812 14.46875,-12.13672 12.28129,-10.3372 29.62383,-24.98676 50.75391,-42.86914 42.26015,-35.76475 99.66916,-84.46342 162.02734,-137.46289 L 1024.582,212.37109 a 1.1823923,1.1823923 0 0 0 0.416,-0.92578 l -0.4863,-22.1875 c -0.4457,-20.29095 -0.768,-23.27251 -3.3789,-31.96094 -8.8487,-29.44628 -29.82787,-51.22156 -59.16014,-61.414058 l -9.98438,-3.46875 a 1.1823923,1.1823923 0 0 0 -0.38867,-0.06445 z" />
  <path
     id="path3"
     style="fill:#d44638;fill-opacity:1;stroke-width:0.743106"
     sodipodi:type="inkscape:offset"
     inkscape:radius="0.80733496"
     inkscape:original="M 0.37109375 320.41211 L 0.15234375 578.57422 C 0.00437776 752.57569 0.18507267 840.12868 0.70703125 847.14062 C 2.3664057 869.43255 9.9529144 887.13074 24.523438 902.70508 C 38.167121 917.28872 55.56519 926.81141 74.996094 930.33008 C 79.72392 931.18622 149.74079 931.36002 511.3457 931.41602 C 889.961 931.47464 942.83174 931.34916 948.41797 930.375 C 968.28662 926.9102 985.61942 917.51689 999.47656 902.70508 C 1013.9568 887.22732 1021.6006 869.40639 1023.3086 847.14062 C 1023.7868 840.90244 1023.9759 745.89836 1023.8398 578.95703 L 1023.6289 320.43359 L 836.36523 478.58789 C 733.37074 565.57293 646.42787 638.88395 643.1582 641.5 C 624.22486 656.64852 597.846 670.49471 574.42188 677.58008 C 532.11998 690.37564 488.22769 690.01171 446.0957 676.51562 C 425.76805 670.0041 401.89751 657.56258 384.87891 644.60742 C 381.52799 642.05659 363.86636 627.37567 345.63086 611.98438 C 327.39535 596.59309 242.25257 524.69369 156.42383 452.20703 L 0.37109375 320.41211 z "
     d="m 0.03125,319.67969 a 0.80741569,0.80741569 0 0 0 -0.46679688,0.73242 l -0.21874999,258.16211 c -0.0739833,87.00113 -0.0665353,152.38979 0.0253906,196.90625 0.045963,22.25823 0.11312357,39.2973 0.20117187,51.21289 0.0880483,11.91559 0.19061171,18.63423 0.33007813,20.50781 1.67054865,22.44205 9.34778065,40.35962 24.03125025,56.05469 13.757823,14.70564 31.3189,24.32002 50.917968,27.86914 0.760523,0.13772 2.314338,0.21569 5.396485,0.30273 3.082146,0.087 7.620589,0.16362 14.0625,0.23243 12.883823,0.13761 33.380493,0.24157 65.029293,0.32031 63.29761,0.15747 171.20329,0.21419 352.00586,0.24219 189.30775,0.0293 297.17884,0.013 358.42383,-0.13282 30.62249,-0.0729 49.58765,-0.17825 61.25195,-0.32617 11.66431,-0.14792 15.92917,-0.31369 17.53516,-0.59375 20.03364,-3.49357 37.53951,-12.98134 51.50976,-27.91406 14.5946,-15.60002 22.3273,-33.63657 24.0469,-56.05274 0.1312,-1.71121 0.2238,-8.7225 0.3066,-21.11718 0.083,-12.39468 0.1464,-30.07157 0.1914,-52.77149 0.09,-45.39984 0.1032,-110.88632 0.035,-194.35742 l -0.211,-258.52344 a 0.80741569,0.80741569 0 0 0 -1.3281,-0.61718 L 835.84375,477.9707 c -51.49711,43.49241 -98.9815,83.56607 -134,113.09375 -17.50925,14.76385 -31.90149,26.89258 -42.12109,35.49219 -10.21961,8.59961 -16.32438,13.71724 -17.06836,14.3125 -18.8351,15.06991 -45.1609,28.88789 -68.4668,35.9375 -42.1497,12.74952 -85.86483,12.38714 -127.8457,-1.06055 -20.21799,-6.47639 -44.0473,-18.89557 -60.97461,-31.78125 -3.25089,-2.47468 -20.98232,-17.20888 -39.21485,-32.59765 C 327.91731,595.9763 242.77403,524.07649 156.94531,451.58984 L 0.89257813,319.79492 A 0.80741569,0.80741569 0 0 0 0.03125,319.67969 Z" />
</svg>
