<?xml version="1.0" encoding="UTF-8" standalone="no"?>
<svg
   role="img"
   viewBox="0 0 24.004503 23.916983"
   class=""
   version="1.1"
   id="svg1"
   sodipodi:docname="facebook.svg"
   inkscape:version="1.4.2 (f4327f4, 2025-05-13)"
   width="24.004503"
   height="23.916983"
   xmlns:inkscape="http://www.inkscape.org/namespaces/inkscape"
   xmlns:sodipodi="http://sodipodi.sourceforge.net/DTD/sodipodi-0.dtd"
   xmlns="http://www.w3.org/2000/svg"
   xmlns:svg="http://www.w3.org/2000/svg">
  <defs
     id="defs1" />
  <sodipodi:namedview
     id="namedview1"
     pagecolor="#ffffff"
     bordercolor="#000000"
     borderopacity="0.25"
     inkscape:showpageshadow="2"
     inkscape:pageopacity="0.0"
     inkscape:pagecheckerboard="0"
     inkscape:deskcolor="#d1d1d1"
     inkscape:zoom="45.254834"
     inkscape:cx="14.495689"
     inkscape:cy="9.0377085"
     inkscape:current-layer="svg1" />
  <title
     id="title1">Facebook</title>
  <path
     d="m 9.1055035,23.647 v -7.98 h -2.474 V 12 h 2.474 v -1.58 c 0,-4.085 1.8480005,-5.978 5.8580005,-5.978 0.401,0 0.955,0.042 1.468,0.103 a 8.68,8.68 0 0 1 1.141,0.195 v 3.325 a 8.623,8.623 0 0 0 -0.653,-0.036 26.805,26.805 0 0 0 -0.733,-0.009 c -0.707,0 -1.259,0.096 -1.675,0.309 a 1.686,1.686 0 0 0 -0.679,0.622 c -0.258,0.42 -0.374,0.995 -0.374,1.752 V 12 h 3.919 l -0.386,2.103 -0.287,1.564 h -3.246 v 8.245 c 5.942,-0.718 10.546,-5.777 10.546,-11.912 0,-6.627 -5.373,-12 -12,-12 C 5.3775035,0 0.00450353,5.373 0.00450353,12 c 0,5.628 3.87399997,10.35 9.10099997,11.647 z"
     id="path1" />
  <path
     id="path2"
     style="fill:#0866ff;fill-opacity:1;stroke-width:0.0246307"
     sodipodi:type="inkscape:offset"
     inkscape:radius="0.016386896"
     inkscape:original="M 12.265625 0.068359375 C 11.104319 0.043439045 10.173746 0.14582741 9.0761719 0.41992188 C 7.5373185 0.80421583 6.0874451 1.4972863 4.8027344 2.4628906 C 3.7240164 3.2736683 2.7668538 4.2908499 2.0195312 5.4179688 C 1.6712001 5.9433248 1.4921905 6.2551709 1.2167969 6.8203125 C -0.25787496 9.8465215 -0.3828994 13.314549 0.8671875 16.490234 C 1.125959 17.147609 1.6019004 18.050274 2.015625 18.669922 C 3.5003272 20.893605 5.6735843 22.562456 8.1777344 23.400391 C 8.4351254 23.486519 8.7477382 23.583493 8.8730469 23.617188 L 9.1015625 23.679688 L 9.1015625 19.703125 L 9.1015625 15.726562 L 7.8574219 15.726562 L 6.6132812 15.726562 L 6.6132812 13.878906 L 6.6132812 12.03125 L 7.8554688 12.03125 L 9.0957031 12.03125 L 9.1074219 10.732422 C 9.1174323 9.5742294 9.1244358 9.3930312 9.171875 9.0527344 C 9.4714739 6.9036129 10.381615 5.6018274 12.044922 4.9433594 C 12.935768 4.5906922 14.212699 4.4187635 15.416016 4.4902344 C 16.190155 4.5362143 16.893135 4.6230112 17.394531 4.7324219 L 17.574219 4.7714844 L 17.574219 6.4453125 L 17.574219 8.1191406 L 17.296875 8.1015625 C 16.833764 8.0712545 15.761311 8.0783482 15.492188 8.1132812 C 14.415992 8.252974 13.820796 8.7199646 13.597656 9.5996094 C 13.496269 9.999277 13.48192 10.171503 13.46875 11.115234 L 13.455078 12.03125 L 15.416016 12.03125 C 17.002283 12.03125 17.376953 12.038713 17.376953 12.064453 C 17.376953 12.092391 16.759626 15.483142 16.722656 15.658203 L 16.708984 15.726562 L 15.083984 15.726562 L 13.460938 15.726562 L 13.460938 19.835938 L 13.460938 23.945312 L 13.761719 23.900391 C 19.12932 23.087261 23.245051 18.841427 23.90625 13.435547 C 23.97054 12.909923 23.996868 11.704517 23.955078 11.179688 C 23.829744 9.605727 23.448075 8.1835738 22.785156 6.8203125 C 21.081487 3.316796 17.776423 0.84380405 13.964844 0.22070312 C 13.333291 0.11745936 12.955144 0.083155675 12.265625 0.068359375 z "
     d="M 11.839844,0.04882812 C 10.867568,0.05550708 10.033677,0.164206 9.0722656,0.40429688 7.5312663,0.78912673 6.0794025,1.4823194 4.7929687,2.4492188 3.7127103,3.2611542 2.7542339,4.2794977 2.0058594,5.4082031 1.6573067,5.9338933 1.4767506,6.2469786 1.2011719,6.8125 c -1.47667177,3.030313 -1.60132209,6.503779 -0.3496094,9.683594 0.2594072,0.65899 0.7358078,1.56266 1.1503906,2.183593 1.4867004,2.226676 3.6622684,3.897221 6.1699219,4.736329 0.2576673,0.08622 0.570943,0.182829 0.6972656,0.216796 l 0.2285157,0.0625 a 0.01638854,0.01638854 0 0 0 0.019531,-0.01563 v -3.976562 -3.976562 a 0.01638854,0.01638854 0 0 0 -0.015625,-0.01563 H 7.8574219 6.6289062 v -1.832032 -1.832031 h 1.2265625 1.2402344 a 0.01638854,0.01638854 0 0 0 0.015625,-0.01563 l 0.011719,-1.298828 C 9.1330568,9.5742806 9.1401402,9.3944149 9.1875,9.0546875 9.4865972,6.9091646 10.392445,5.6154847 12.050781,4.9589844 c 0.887558,-0.3513655 2.164155,-0.524463 3.365235,-0.453125 0.773506,0.045942 1.474566,0.1330721 1.974609,0.2421875 l 0.167969,0.037109 v 1.6601563 1.65625 l -0.259766,-0.015625 c -0.232461,-0.015213 -0.616667,-0.021885 -0.976562,-0.019531 -0.359895,0.00235 -0.694855,0.013444 -0.832032,0.03125 -0.540027,0.070097 -0.961163,0.2222225 -1.27539,0.46875 -0.314228,0.2465274 -0.520559,0.5867784 -0.632813,1.0292968 -0.101572,0.400398 -0.115734,0.5756619 -0.128906,1.5195309 l -0.01367,0.916016 a 0.01638854,0.01638854 0 0 0 0.01563,0.01563 h 1.960938 c 0.793107,0 1.282517,0.0027 1.574218,0.0078 0.145851,0.0025 0.243476,0.0055 0.302735,0.0098 0.02963,0.0021 0.05052,0.0054 0.0625,0.0078 0.0023,4.6e-4 0.0023,-4.43e-4 0.0039,0 1.64e-4,4.4e-5 -1.57e-4,0.0019 0,0.002 -0.0012,0.0071 -0.0036,0.01807 -0.0059,0.03125 -0.0045,0.02636 -0.01106,0.06348 -0.01953,0.111328 -0.01695,0.0957 -0.04109,0.230313 -0.07031,0.392578 -0.05845,0.32453 -0.137322,0.756836 -0.216797,1.193359 -0.07947,0.436524 -0.159586,0.877781 -0.222656,1.220704 -0.06307,0.342922 -0.10825,0.588537 -0.117188,0.630859 l -0.01172,0.05664 h -1.611328 -1.623046 a 0.01638854,0.01638854 0 0 0 -0.01563,0.01563 v 4.109374 4.109375 a 0.01638854,0.01638854 0 0 0 0.01758,0.01563 l 0.300781,-0.04492 c 5.374727,-0.81421 9.496135,-5.065528 10.158203,-10.478516 0.06459,-0.528086 0.09082,-1.732415 0.04883,-2.259766 C 23.845222,9.6019279 23.464579,8.1775675 22.800781,6.8125 21.094794,3.3042151 17.7837,0.82904949 13.966797,0.20507813 13.334786,0.10175958 12.955559,0.06753957 12.265625,0.05273437 12.120318,0.04961625 11.97874,0.04787399 11.839844,0.04882812 Z"
     transform="translate(0.00450353,-0.044)" />
</svg>
