<?xml version="1.0" encoding="UTF-8" standalone="no"?>
<svg
   role="img"
   viewBox="0 0 24.000328 24.000069"
   version="1.1"
   id="svg1"
   sodipodi:docname="instagram.svg"
   inkscape:version="1.4.2 (f4327f4, 2025-05-13)"
   width="24.000328"
   height="24.000069"
   xmlns:inkscape="http://www.inkscape.org/namespaces/inkscape"
   xmlns:sodipodi="http://sodipodi.sourceforge.net/DTD/sodipodi-0.dtd"
   xmlns="http://www.w3.org/2000/svg"
   xmlns:svg="http://www.w3.org/2000/svg">
  <defs
     id="defs1" />
  <sodipodi:namedview
     id="namedview1"
     pagecolor="#ffffff"
     bordercolor="#000000"
     borderopacity="0.25"
     inkscape:showpageshadow="2"
     inkscape:pageopacity="0.0"
     inkscape:pagecheckerboard="0"
     inkscape:deskcolor="#d1d1d1"
     inkscape:zoom="33.941125"
     inkscape:cx="15.556349"
     inkscape:cy="11.873501"
     inkscape:current-layer="svg1" />
  <title
     id="title1">Instagram</title>
  <path
     d="m 7.0305263,0.08401679 c -1.2768,0.0602 -2.1487,0.264 -2.911,0.5634 -0.7888,0.3075 -1.4575,0.72000001 -2.1228,1.38770001 -0.6652,0.6677 -1.07499999,1.3368 -1.38019999,2.127 -0.2954,0.7638 -0.4956,1.6365 -0.552,2.914 -0.0564,1.2775 -0.0689,1.6882 -0.0626,4.9470002 0.0062,3.2586 0.0206,3.6671 0.0825,4.9473 0.061,1.2765 0.264,2.1482 0.5635,2.9107 0.308,0.7889 0.71999999,1.4573 1.38799999,2.1228 0.6679,0.6655 1.3365,1.0743 2.1285,1.38 0.7632,0.295 1.6361,0.4961 2.9134,0.552 1.2773,0.056 1.6884,0.069 4.9461997,0.0627 3.2578,-0.0062 3.668,-0.0207 4.9478,-0.0814 1.28,-0.0607 2.147,-0.2652 2.9098,-0.5633 0.7889,-0.3086 1.4578,-0.72 2.1228,-1.3881 0.665,-0.6682 1.0745,-1.3378 1.3795,-2.1284 0.2957,-0.7632 0.4966,-1.636 0.552,-2.9124 0.056,-1.2809 0.0692,-1.6898 0.063,-4.948 -0.0063,-3.2583002 -0.021,-3.6668002 -0.0817,-4.9465002 -0.0607,-1.2797 -0.264,-2.1487 -0.5633,-2.9117 -0.3084,-0.7889 -0.72,-1.4568 -1.3876,-2.1228 -0.6677,-0.666 -1.3379,-1.07520001 -2.1281,-1.37950001 -0.7638,-0.2955 -1.6361,-0.4968 -2.9134,-0.552 -1.2773,-0.0552 -1.6884,-0.0695 -4.9474,-0.0631 -3.2589997,0.0062 -3.6669997,0.0201 -4.9468997,0.0825 m 0.1402,21.69320021 c -1.17,-0.0509 -1.8053,-0.2453 -2.2287,-0.408 -0.5606,-0.216 -0.96,-0.4771 -1.3819,-0.895 -0.422,-0.4178 -0.6811,-0.8186 -0.9,-1.378 -0.1644,-0.4234 -0.3624,-1.058 -0.4171,-2.228 -0.0595,-1.2645 -0.072,-1.6442 -0.079,-4.848 -0.007,-3.2037002 0.0053,-3.5830002 0.0607,-4.8480002 0.05,-1.169 0.2456,-1.805 0.408,-2.2282 0.216,-0.5613 0.4762,-0.96 0.895,-1.3816 0.4188,-0.4217 0.8184,-0.6814 1.3783,-0.9003 0.423,-0.1651 1.0575,-0.3614 2.227,-0.4171 1.2655,-0.06 1.6447,-0.072 4.8479997,-0.079 3.2033,-0.007 3.5835,0.005 4.8495,0.0608 1.169,0.0508 1.8053,0.2445 2.228,0.408 0.5608,0.216 0.96,0.4754 1.3816,0.895 0.4217,0.4194 0.6816,0.8176 0.9005,1.3787 0.1653,0.4217 0.3617,1.056 0.4169,2.2263 0.0602,1.2655 0.0739,1.645 0.0796,4.8480002 0.0058,3.203 -0.0055,3.5834 -0.061,4.848 -0.051,1.17 -0.245,1.8055 -0.408,2.2294 -0.216,0.5604 -0.4763,0.96 -0.8954,1.3814 -0.419,0.4215 -0.8181,0.6811 -1.3783,0.9 -0.4224,0.1649 -1.0577,0.3617 -2.2262,0.4174 -1.2656,0.0595 -1.6448,0.072 -4.8493,0.079 -3.2044997,0.007 -3.5824997,-0.006 -4.8479997,-0.0608 M 16.953426,5.5864168 a 1.44,1.44 0 1 0 1.437,-1.4424 1.44,1.44 0 0 0 -1.437,1.4424 M 5.8389263,12.012017 c 0.0067,3.4032 2.7706,6.1557 6.1729997,6.1493 3.4026,-0.0065 6.157,-2.7701 6.1506,-6.1733 -0.0065,-3.4032002 -2.771,-6.1565002 -6.174,-6.1498002 -3.4029997,0.0067 -6.1559997,2.771 -6.1495997,6.1738002 m 2.1615,-0.0043 a 4,4 0 1 1 4.0079997,3.9921 3.9996,3.9996 0 0 1 -4.0079997,-3.9921"
     id="path1" />
  <path
     id="path2"
     style="fill:#ff0069;fill-opacity:1;stroke-width:0.0246307"
     sodipodi:type="inkscape:offset"
     inkscape:radius="0.01609355"
     inkscape:original="M 11.539062 0.01953125 C 7.8300764 0.03543909 7.0085123 0.06130517 6.0253906 0.1875 C 4.6403644 0.3652838 3.4524046 0.83620798 2.5234375 1.578125 C 2.0219701 1.9786205 1.4049094 2.6809813 1.0976562 3.2011719 C 0.72421769 3.8334168 0.42989331 4.6181703 0.27148438 5.4003906 C 0.045638705 6.5156122 -0.00082137629 7.7949622 0.01953125 12.439453 C 0.0327873 15.464496 0.046051615 16.148031 0.11132812 17.191406 C 0.1913168 18.469939 0.42887851 19.43495 0.8984375 20.394531 C 1.2208404 21.053387 1.564311 21.517198 2.1367188 22.070312 C 2.8839425 22.792351 3.7086818 23.262511 4.7734375 23.572266 C 5.4755888 23.776534 6.2226953 23.883734 7.2539062 23.927734 C 7.5993521 23.942473 7.9529608 23.957178 8.0410156 23.960938 C 8.5000893 23.980577 15.108906 23.973965 15.751953 23.953125 C 17.757565 23.888143 18.513056 23.793113 19.431641 23.494141 C 20.495275 23.14796 21.265011 22.683879 22.007812 21.935547 C 22.891228 21.045555 23.455769 19.94972 23.730469 18.589844 C 23.943837 17.533574 23.979027 16.637144 23.978516 12.275391 C 23.977995 7.8222176 23.935036 6.6091343 23.742188 5.5546875 C 23.565206 4.5869927 23.226946 3.7064521 22.759766 2.9921875 C 22.304 2.2953724 21.571085 1.5764145 20.873047 1.1425781 C 20.389746 0.84220235 19.656624 0.53720516 19.021484 0.37109375 C 17.804938 0.05292449 16.645478 -0.00237018 11.539062 0.01953125 z M 12.488281 2.15625 C 16.50887 2.1552901 17.509286 2.2007315 18.429688 2.4257812 C 19.353707 2.6517155 20.054655 3.0616956 20.636719 3.71875 C 21.319305 4.4892761 21.670462 5.5189256 21.759766 7.0078125 C 21.867683 8.8070131 21.883996 15.09285 21.785156 16.859375 C 21.70855 18.228536 21.46444 19.12012 20.957031 19.882812 C 20.785913 20.140022 20.321382 20.625211 20.054688 20.826172 C 19.518599 21.230127 18.827673 21.507957 18.007812 21.648438 C 17.271095 21.774676 16.581672 21.808208 13.978516 21.835938 C 9.8454657 21.879969 7.2825245 21.841313 6.3671875 21.722656 C 4.9469969 21.538554 4.0291668 21.082351 3.2773438 20.185547 C 2.6898174 19.484723 2.3536482 18.510956 2.2539062 17.216797 C 2.1881382 16.36346 2.1740654 15.579656 2.1621094 12.339844 C 2.1441628 7.4766705 2.1833259 6.5089125 2.4375 5.5214844 C 2.6536224 4.6818809 2.9891392 4.0785843 3.5488281 3.5273438 C 3.8861886 3.1950756 4.1286036 3.0203989 4.53125 2.8203125 C 5.7215483 2.2288193 6.5832703 2.1576598 12.488281 2.15625 z "
     d="M 13.277344,0 C 12.754492,-3.8482174e-5 12.17738,0.0011685 11.539063,0.00390625 7.8300123,0.01981437 7.0074068,0.04557138 6.0234375,0.171875 4.6360043,0.34996777 3.4452719,0.82238648 2.5136719,1.5664062 2.0100656,1.96861 1.39281,2.6705066 1.0839844,3.1933594 0.70946334,3.827437 0.4146224,4.6125155 0.25585938,5.3964844 0.02962369,6.5136318 -0.0164469,7.7948421 0.00390625,12.439453 c 0.01325621,3.02508 0.0265015,3.71023 0.09179687,4.753906 0.08008117,1.280012 0.31857311,2.247502 0.78906251,3.208985 0.32307567,0.660231 0.66690707,1.125685 1.24023437,1.679687 0.7489686,0.723725 1.5777218,1.195507 2.6445312,1.50586 0.7036413,0.204701 1.4523826,0.311435 2.484375,0.355468 0.3454578,0.01474 0.6991025,0.02945 0.7871094,0.0332 0.1164543,0.005 0.614382,0.0079 1.3085938,0.0098 0.6942116,0.0018 1.5835156,0.0029 2.4785156,0.002 1.789999,-0.0018 3.600576,-0.0091 3.923828,-0.01953 2.005989,-0.06499 2.765447,-0.159519 3.685547,-0.458984 1.065486,-0.346784 1.837658,-0.812584 2.582031,-1.5625 0.885654,-0.892247 1.451348,-1.99109 1.726563,-3.353516 0.21365,-1.057666 0.248558,-1.95652 0.248047,-6.318359 C 23.99362,7.8221141 23.950977,6.6089139 23.757812,5.5527344 23.580488,4.5831693 23.241986,3.6987791 22.773437,2.9824219 22.316121,2.2832363 21.581378,1.5642845 20.880859,1.1289062 20.395509,0.82725708 19.662263,0.52203326 19.025391,0.35546875 17.95918,0.07661752 16.937305,2.6937522e-4 13.277344,0 Z m -0.789063,2.171875 c 4.020467,-9.599e-4 5.019226,0.045002 5.9375,0.2695313 0.92148,0.2253134 1.619204,0.632368 2.199219,1.2871093 0.679684,0.7672501 1.029961,1.7924842 1.119141,3.2792969 0.107788,1.7970611 0.124106,8.0872625 0.02539,9.8515625 -0.07652,1.367646 -0.320648,2.253814 -0.826172,3.013672 -0.168847,0.253798 -0.634513,0.740579 -0.898437,0.939453 -0.533614,0.40209 -1.2212,0.680174 -2.039063,0.820312 -0.735537,0.126036 -1.424295,0.159772 -4.027343,0.1875 -4.1328795,0.04403 -6.6973946,0.0049 -7.6093754,-0.113281 C 4.9514347,21.523251 4.038469,21.069703 3.2890625,20.175781 2.7043096,19.478266 2.3691079,18.506857 2.2695313,17.214844 2.2038078,16.362084 2.1896902,15.579619 2.1777344,12.339844 2.1597881,7.4767645 2.1994842,6.5107468 2.453125,5.5253906 2.668709,4.6878788 3.0027495,4.08844 3.5605469,3.5390625 3.8971704,3.2075202 4.1374536,3.0335552 4.5390625,2.8339844 5.133056,2.5388121 5.6410271,2.3750072 6.7421875,2.2832031 7.8433479,2.1913991 9.5358404,2.1725799 12.488281,2.171875 Z"
     transform="translate(4.2630812e-4,1.6789642e-5)" />
  <path
     id="path3"
     style="fill:#ff0069;fill-opacity:1;stroke-width:0.0246307"
     sodipodi:type="inkscape:offset"
     inkscape:radius="0.019563936"
     inkscape:original="M 11.244141 5.8945312 C 9.4083449 6.1521609 7.8744524 7.1092164 6.8710938 8.6210938 C 6.349712 9.4067203 6.0350639 10.256181 5.8945312 11.255859 C 5.8473007 11.591834 5.8552337 12.499102 5.9082031 12.845703 C 6.0165178 13.554453 6.2009176 14.142486 6.5097656 14.755859 C 7.439099 16.601519 9.2440437 17.865328 11.304688 18.113281 C 11.603906 18.149281 12.638156 18.129561 12.917969 18.082031 C 14.275337 17.851476 15.409584 17.274009 16.341797 16.341797 C 17.167069 15.516524 17.762711 14.437529 18.003906 13.326172 C 18.126467 12.761618 18.174057 11.939161 18.117188 11.388672 C 17.967146 9.9361734 17.323808 8.6130429 16.265625 7.5859375 C 15.324446 6.6723999 14.180623 6.111635 12.845703 5.9082031 C 12.490893 5.8541321 11.590954 5.8458603 11.244141 5.8945312 z M 12.708984 8.0507812 C 13.270019 8.1549766 13.871751 8.4074085 14.322266 8.7265625 C 15.007506 9.2120014 15.566311 9.9762083 15.824219 10.785156 C 16.086918 11.60914 16.061873 12.594304 15.759766 13.398438 C 15.658606 13.667699 15.465569 14.041773 15.300781 14.285156 C 15.093603 14.591148 14.576937 15.106513 14.275391 15.306641 C 13.729971 15.668622 13.121058 15.902023 12.546875 15.970703 C 11.885937 16.049758 11.334342 15.999405 10.757812 15.810547 C 9.3663562 15.35474 8.3541414 14.212042 8.0605469 12.763672 C 8.0125859 12.527091 8.0045494 12.41438 8.0058594 11.982422 C 8.0071484 11.55634 8.015848 11.436987 8.0625 11.21875 C 8.4096633 9.5947285 9.5932642 8.4112549 11.21875 8.0625 C 11.570551 7.9870195 12.33506 7.981336 12.708984 8.0507812 z "
     d="M 12.042969,5.84375 C 11.730051,5.8409996 11.418051,5.8503197 11.242188,5.875 9.4012732,6.133348 7.8618037,7.0930128 6.8554687,8.609375 6.3324994,9.3973936 6.0158804,10.251755 5.875,11.253906 c -0.047948,0.341082 -0.040024,1.244351 0.013672,1.595703 0.1085715,0.710431 0.2938156,1.300951 0.6035156,1.916016 0.9322961,1.851544 2.7434194,3.118454 4.8105465,3.367187 0.305368,0.03674 1.332362,0.01746 1.619141,-0.03125 1.360911,-0.231156 2.498627,-0.811127 3.433594,-1.746093 0.827973,-0.827974 1.425914,-1.910075 1.667968,-3.025391 0.123174,-0.567377 0.17047,-1.389779 0.113282,-1.943359 C 17.986214,9.9297425 17.340662,8.6024594 16.279297,7.5722656 15.335305,6.6559973 14.188177,6.0926597 12.849609,5.8886719 12.669916,5.8612876 12.355886,5.8465004 12.042969,5.84375 Z m -0.08789,2.1777344 c 0.281222,-0.00218 0.565486,0.01456 0.75,0.048828 0.557927,0.1036181 1.157688,0.3546582 1.605469,0.671875 0.681431,0.4827404 1.237634,1.244275 1.494141,2.0488285 0.261218,0.819341 0.237882,1.800066 -0.0625,2.599609 -0.100377,0.267175 -0.293485,0.641262 -0.457032,0.882813 -0.204429,0.301932 -0.724253,0.820313 -1.021484,1.017578 -0.543059,0.360413 -1.148138,0.591903 -1.71875,0.660156 -0.658691,0.07879 -1.207251,0.02787 -1.78125,-0.160156 -1.3849309,-0.45367 -2.3913407,-1.589498 -2.6835939,-3.03125 -0.047805,-0.235813 -0.055997,-0.345639 -0.054687,-0.777344 0.00129,-0.425827 0.01019,-0.542468 0.056641,-0.759766 0.3456692,-1.617032 1.5221106,-2.7933656 3.1406247,-3.1406247 0.173157,-0.037152 0.451201,-0.058365 0.732422,-0.060547 z"
     transform="translate(4.2630812e-4,1.6789642e-5)" />
  <path
     id="path4"
     style="fill:#ff0069;fill-opacity:1;stroke-width:0.0246307"
     sodipodi:type="inkscape:offset"
     inkscape:radius="0.030246513"
     inkscape:original="M 18.386719 4.1640625 C 17.77227 4.1642307 17.257448 4.5365381 17.048828 5.1308594 C 16.865891 5.6520109 17.007934 6.2292987 17.414062 6.609375 C 17.584389 6.7687761 17.849222 6.9178256 18.058594 6.9707031 C 18.265075 7.0228499 18.64827 7.0048787 18.851562 6.9335938 C 19.066626 6.8581809 19.349073 6.6617858 19.486328 6.4941406 C 20.251219 5.559889 19.592591 4.1637325 18.386719 4.1640625 z "
     d="m 18.386719,4.1347656 c -0.626663,1.716e-4 -1.154725,0.3810585 -1.367188,0.9863281 -0.186869,0.5323549 -0.04167,1.1216528 0.373047,1.5097657 C 17.567458,6.7945209 17.834197,6.945301 18.050781,7 c 0.216695,0.054726 0.597553,0.037578 0.810547,-0.037109 0.222735,-0.078103 0.505633,-0.2747952 0.648438,-0.4492187 0.779639,-0.9522655 0.106174,-2.3792427 -1.123047,-2.3789063 z"
     transform="translate(4.2630812e-4,1.6789642e-5)" />
</svg>
