<?xml version="1.0" encoding="UTF-8" standalone="no"?>
<svg
   width="23.996094"
   height="23.99692"
   viewBox="0 0 23.996094 23.99692"
   version="1.1"
   id="svg1"
   sodipodi:docname="linkedin.svg"
   inkscape:version="1.4.2 (f4327f4, 2025-05-13)"
   xmlns:inkscape="http://www.inkscape.org/namespaces/inkscape"
   xmlns:sodipodi="http://sodipodi.sourceforge.net/DTD/sodipodi-0.dtd"
   xmlns="http://www.w3.org/2000/svg"
   xmlns:svg="http://www.w3.org/2000/svg">
  <defs
     id="defs1" />
  <sodipodi:namedview
     id="namedview1"
     pagecolor="#ffffff"
     bordercolor="#000000"
     borderopacity="0.25"
     inkscape:showpageshadow="2"
     inkscape:pageopacity="0.0"
     inkscape:pagecheckerboard="0"
     inkscape:deskcolor="#d1d1d1"
     inkscape:zoom="32"
     inkscape:cx="12.25"
     inkscape:cy="11.96875"
     inkscape:current-layer="svg1" />
  <path
     d="M 18.998047,-0.00195313 H 4.9980469 c -2.761,0 -5.00000003,2.23900003 -5.00000003,5.00000003 V 18.998047 c 0,2.761 2.23900003,5 5.00000003,5 H 18.998047 c 2.762,0 5,-2.239 5,-5 V 4.9980469 c 0,-2.761 -2.238,-5.00000003 -5,-5.00000003 z M 7.9980469,18.998047 h -3 V 7.9980469 h 3 z m -1.5,-12.2680001 c -0.966,0 -1.75,-0.79 -1.75,-1.764 0,-0.974 0.784,-1.764 1.75,-1.764 0.966,0 1.75,0.79 1.75,1.764 0,0.974 -0.783,1.764 -1.75,1.764 z M 19.998047,18.998047 h -3 v -5.604 c 0,-3.368 -4,-3.113 -4,0 v 5.604 H 9.9980469 V 7.9980469 h 3.0000001 v 1.765 c 1.396,-2.586 7,-2.777 7,2.4760001 z"
     id="path1" />
  <path
     id="path2"
     style="fill:#0077b5;fill-opacity:1;stroke-width:0.0174165"
     sodipodi:type="inkscape:offset"
     inkscape:radius="0.015625"
     inkscape:original="M 12 0.017578125 C 4.9076687 0.017578125 4.5528318 0.018718865 4.3535156 0.048828125 C 3.4349033 0.18759629 2.701978 0.49014744 1.9863281 1.0253906 C 1.7092442 1.2326249 1.2326249 1.7092442 1.0253906 1.9863281 C 0.49014744 2.701978 0.1875963 3.4349033 0.048828125 4.3535156 C 0.018718815 4.5528318 0.017578125 4.9076687 0.017578125 12 C 0.017578125 19.092331 0.018718865 19.447167 0.048828125 19.646484 C 0.18759629 20.565097 0.49014744 21.298022 1.0253906 22.013672 C 1.2326249 22.290755 1.7092442 22.767375 1.9863281 22.974609 C 2.7796234 23.567925 3.6527595 23.8978 4.6503906 23.980469 C 4.688707 23.983611 8.0439305 23.983822 12.105469 23.982422 L 19.488281 23.980469 L 19.707031 23.943359 C 20.623499 23.787812 21.313518 23.498264 22.013672 22.974609 C 22.290755 22.767375 22.767375 22.290755 22.974609 22.013672 C 23.508973 21.299196 23.812632 20.563588 23.951172 19.646484 C 23.981242 19.447167 23.982422 19.092331 23.982422 12 C 23.982422 4.9076687 23.981282 4.5528318 23.951172 4.3535156 C 23.812231 3.4337604 23.505889 2.6948024 22.972656 1.9863281 C 22.779987 1.7303404 22.390233 1.3267871 22.144531 1.1289062 C 21.416202 0.54233235 20.615467 0.19520546 19.646484 0.048828125 C 19.447167 0.018718815 19.092331 0.017578125 12 0.017578125 z M 6.5917969 3.2011719 C 7.2533241 3.2376427 7.8223376 3.6248059 8.0996094 4.2285156 C 8.3566192 4.7881091 8.2941008 5.4795266 7.9414062 5.9863281 C 7.7771425 6.2223651 7.4753921 6.4748037 7.2285156 6.5839844 C 7.1731668 6.6084621 7.0612652 6.6488954 6.9785156 6.6738281 C 6.8482546 6.7130766 6.7878661 6.7195294 6.5390625 6.7246094 C 6.2351124 6.7308154 6.1277329 6.7165451 5.921875 6.6425781 C 5.3197022 6.426212 4.8799379 5.9077398 4.7714844 5.2871094 C 4.5734208 4.1536819 5.4599781 3.1387735 6.5917969 3.2011719 z M 4.9902344 7.9863281 L 6.4960938 7.9863281 L 8.0019531 7.9863281 L 8.0019531 13.498047 L 8.0019531 19.009766 L 6.4960938 19.009766 L 4.9902344 19.009766 L 4.9902344 13.498047 L 4.9902344 7.9863281 z M 9.9882812 7.9863281 L 11.494141 7.9863281 L 13.001953 7.9863281 L 13.001953 8.859375 L 13.001953 9.734375 L 13.066406 9.6308594 C 13.555951 8.8380562 14.462469 8.263326 15.537109 8.0644531 C 16.982156 7.7970332 18.374192 8.2877835 19.171875 9.3476562 C 19.632896 9.9602093 19.898598 10.721349 19.986328 11.685547 C 19.997268 11.805832 20.001942 13.204421 20.001953 15.443359 L 20.003906 19.009766 L 18.496094 19.009766 L 16.990234 19.009766 L 16.990234 16.103516 C 16.990234 14.195707 16.982723 13.134699 16.970703 13.017578 C 16.904393 12.371404 16.680216 11.854037 16.308594 11.494141 C 15.946326 11.143304 15.551438 10.980469 15.058594 10.980469 C 14.53625 10.980469 14.075415 11.176542 13.697266 11.556641 C 13.363596 11.892031 13.156488 12.308286 13.050781 12.861328 L 13.013672 13.0625 L 13.005859 16.037109 L 13 19.009766 L 11.494141 19.009766 L 9.9882812 19.009766 L 9.9882812 13.498047 L 9.9882812 7.9863281 z "
     d="m 12,0.00195313 c -7.092333,0 -7.4464708,7.4034e-4 -7.6484375,0.03124999 C 3.4308473,0.17228896 2.6940483,0.47705561 1.9765625,1.0136719 1.697159,1.222641 1.222641,1.697159 1.0136719,1.9765625 0.47705561,2.6940483 0.17228897,3.4308473 0.03320312,4.3515625 0.00269342,4.5535292 0.00195313,4.907667 0.00195313,12 c 0,7.092333 7.4035e-4,7.44647 0.03124999,7.648437 0.13908584,0.920716 0.44385249,1.657515 0.98046878,2.375 0.2089691,0.279403 0.6834871,0.753922 0.9628906,0.962891 0.7954744,0.594946 1.6715825,0.926876 2.671875,1.009766 0.038316,0.0031 3.3954892,0.0034 7.4570315,0.002 l 7.382812,-0.002 a 0.01562656,0.01562656 0 0 0 0.002,0 l 0.21875,-0.03711 c 0.918347,-0.155865 1.612569,-0.447706 2.314453,-0.972656 0.279403,-0.208969 0.753922,-0.683488 0.962891,-0.962891 0.535745,-0.716321 0.84161,-1.455781 0.980469,-2.375 0.03047,-0.201962 0.03125,-0.556104 0.03125,-7.648437 0,-7.092333 -7.4e-4,-7.4464707 -0.03125,-7.6484375 -0.139263,-0.921887 -0.447779,-1.6646521 -0.982422,-2.375 C 22.790362,1.7187895 22.401795,1.3165146 22.154297,1.1171875 21.423956,0.5289934 20.619771,0.17993552 19.648437,0.03320312 19.44647,0.00269342 19.092333,0.00195313 12,0.00195313 Z M 6.3828125,3.2167969 c 0.068023,-0.00424 0.1388548,-0.00387 0.2089844,0 0.6559502,0.036163 1.2191952,0.4189338 1.4941406,1.0175781 0.2545713,0.5542842 0.19118,1.2401444 -0.1582031,1.7421875 -0.1621226,0.2329603 -0.4620422,0.4862678 -0.7050782,0.59375 -0.054045,0.023901 -0.1660394,0.063182 -0.2480468,0.087891 -0.1294368,0.039 -0.1869617,0.045706 -0.4355469,0.050781 C 6.2356762,6.7151789 6.1325669,6.7005517 5.9277344,6.6269531 5.3307587,6.4124544 4.894584,5.9001848 4.7871094,5.2851562 4.6029559,4.2313302 5.3624665,3.2804009 6.3828125,3.2167969 Z M 5.0058594,8.0019531 h 1.4902343 1.4902344 v 5.4960939 5.496094 H 6.4960937 5.0058594 v -5.496094 z m 4.9980466,0 h 1.490235 1.492187 v 0.8574219 0.875 a 0.01562656,0.01562656 0 0 0 0.0293,0.00781 l 0.06445,-0.1035156 c 0.486788,-0.7883386 1.388095,-1.3604149 2.458985,-1.5585938 1.439918,-0.2664707 2.827269,0.2225979 3.621093,1.2773438 0.459016,0.6098889 0.723008,1.3679761 0.810547,2.3300781 0.0025,0.02745 0.0058,0.137362 0.0078,0.320313 0.002,0.18295 0.0026,0.439463 0.0039,0.761718 0.0025,0.644511 0.0039,1.55437 0.0039,2.673828 l 0.002,3.550782 h -1.492187 -1.490235 v -2.890625 c 0,-0.953925 -0.0025,-1.696416 -0.0059,-2.214844 -0.0017,-0.259214 -0.0035,-0.461582 -0.0059,-0.607422 -0.0024,-0.14584 -0.0046,-0.234126 -0.0078,-0.265625 -0.06659,-0.648889 -0.291274,-1.170286 -0.666016,-1.533203 -0.364608,-0.353104 -0.765433,-0.517578 -1.261718,-0.517578 -0.526254,0 -0.992316,0.197384 -1.373047,0.580078 -0.335949,0.337681 -0.544249,0.757181 -0.650391,1.3125 a 0.01562656,0.01562656 0 0 0 0,0.002 l -0.03711,0.201172 a 0.01562656,0.01562656 0 0 0 0,0.002 l -0.0078,2.974609 -0.0059,2.957032 h -1.490234 -1.490235 v -5.496094 z"
     transform="translate(-0.00195313,-0.00195313)" />
</svg>
