<?xml version="1.0" encoding="UTF-8" standalone="no"?>
<svg
   role="img"
   viewBox="0 0 24 24"
   version="1.1"
   id="svg1"
   sodipodi:docname="youtube.svg"
   inkscape:version="1.4.2 (f4327f4, 2025-05-13)"
   xmlns:inkscape="http://www.inkscape.org/namespaces/inkscape"
   xmlns:sodipodi="http://sodipodi.sourceforge.net/DTD/sodipodi-0.dtd"
   xmlns="http://www.w3.org/2000/svg"
   xmlns:svg="http://www.w3.org/2000/svg">
  <defs
     id="defs1" />
  <sodipodi:namedview
     id="namedview1"
     pagecolor="#ffffff"
     bordercolor="#000000"
     borderopacity="0.25"
     inkscape:showpageshadow="2"
     inkscape:pageopacity="0.0"
     inkscape:pagecheckerboard="0"
     inkscape:deskcolor="#d1d1d1"
     inkscape:zoom="40.599714"
     inkscape:cx="18.793236"
     inkscape:cy="14.655276"
     inkscape:current-layer="svg1" />
  <title
     id="title1">YouTube</title>
  <path
     d="M23.498 6.186a3.016 3.016 0 0 0-2.122-2.136C19.505 3.545 12 3.545 12 3.545s-7.505 0-9.377.505A3.017 3.017 0 0 0 .502 6.186C0 8.07 0 12 0 12s0 3.93.502 5.814a3.016 3.016 0 0 0 2.122 2.136c1.871.505 9.376.505 9.376.505s7.505 0 9.377-.505a3.015 3.015 0 0 0 2.122-2.136C24 15.93 24 12 24 12s0-3.93-.502-5.814zM9.545 15.568V8.432L15.818 12l-6.273 3.568z"
     id="path1" />
  <path
     id="path2"
     style="fill:#ff0000;stroke-width:0.0174165"
     sodipodi:type="inkscape:offset"
     inkscape:radius="0.021811651"
     inkscape:original="M 9.6835938 3.578125 C 5.9382005 3.6516821 3.6111533 3.8067755 2.671875 4.0488281 C 1.7257112 4.292655 0.94248537 4.9958129 0.60351562 5.9042969 C 0.28848661 6.7486166 0.06153932 8.8579926 0.01953125 11.330078 C -0.02356654 13.866291 0.19195444 16.695503 0.51367188 17.818359 C 0.66713268 18.353966 0.91407112 18.776234 1.296875 19.158203 C 1.5507878 19.411562 1.7618288 19.563286 2.0742188 19.720703 C 2.3346689 19.851947 2.5524117 19.927998 2.8554688 19.992188 C 3.8422744 20.201201 6.1904154 20.35399 9.4570312 20.419922 C 10.448076 20.439892 13.449748 20.441315 14.412109 20.421875 C 17.870357 20.352028 20.126272 20.207475 21.148438 19.992188 C 21.771079 19.861049 22.265618 19.595708 22.703125 19.158203 C 23.018549 18.842778 23.225762 18.5283 23.390625 18.113281 C 23.73611 17.243574 23.982422 14.694621 23.982422 12 C 23.982422 9.4564028 23.762621 7.0219109 23.441406 6.0292969 C 23.369623 5.8074771 23.169636 5.4149375 23.029297 5.2167969 C 22.863352 4.9825041 22.521701 4.6457957 22.289062 4.4882812 C 22.071026 4.3406524 21.744215 4.1778536 21.515625 4.1035156 C 20.736422 3.8501172 18.915935 3.7022457 15.273438 3.5957031 C 14.269872 3.5663491 10.8286 3.555638 9.6835938 3.578125 z M 9.5449219 8.4179688 L 9.6015625 8.4511719 C 9.6326946 8.4694213 11.047676 9.2742859 12.746094 10.240234 C 14.444512 11.206182 15.828012 12.002866 15.820312 12.009766 C 15.812606 12.016664 14.42918 12.804191 12.748047 13.759766 C 11.066915 14.715341 9.6598516 15.515372 9.6191406 15.539062 L 9.5449219 15.582031 L 9.5449219 12 L 9.5449219 8.4179688 z "
     d="m 10.898438,3.5449219 c -0.499362,0.0017 -0.9283443,0.00609 -1.2148442,0.011719 C 5.937776,3.6302061 3.6115438,3.7836805 2.6660156,4.0273437 1.7128557,4.2729736 0.92551237,4.981144 0.58398437,5.8964844 0.2659954,6.7487372 0.04007404,8.8568691 -0.00195313,11.330078 c -0.04312346,2.537724 0.17046157,5.364438 0.49414063,6.494141 0.15433118,0.538645 0.40388897,0.965276 0.7890625,1.349609 0.2551084,0.254552 0.4693088,0.408231 0.7832031,0.566406 0.261789,0.131919 0.4827077,0.208963 0.7871094,0.273438 0.9915595,0.21002 3.3383841,0.361793 6.6054688,0.427734 0.9919107,0.01999 3.9917797,0.02141 4.9550777,0.002 3.458664,-0.06986 5.713662,-0.213472 6.740235,-0.429687 0.626168,-0.131882 1.126206,-0.399646 1.566406,-0.839844 0.317172,-0.317173 0.525624,-0.635401 0.691406,-1.052734 0.174785,-0.439995 0.322887,-1.295263 0.427735,-2.378906 0.104847,-1.083644 0.166015,-2.394213 0.166015,-3.742188 0,-2.5448537 -0.217481,-4.9767822 -0.541015,-5.9765625 C 23.389775,5.7974988 23.189418,5.4063311 23.046875,5.2050781 22.878466,4.9673058 22.53716,4.6307498 22.300781,4.4707031 22.080531,4.321575 21.753166,4.1573748 21.521484,4.0820312 20.735153,3.8263147 18.916312,3.6807724 15.273438,3.5742188 c -0.753651,-0.022044 -2.876917,-0.034405 -4.375,-0.029297 z m -1.3320317,4.9121094 0.023437,0.013672 c 0.00963,0.00564 0.1020513,0.057273 0.265625,0.1503907 0.1635732,0.093117 0.3966702,0.2265509 0.6816402,0.3886718 0.569941,0.3242418 1.348057,0.7670258 2.197266,1.2500004 0.849181,0.482958 1.620569,0.923392 2.177734,1.24414 0.278583,0.160375 0.503127,0.290155 0.658204,0.38086 0.07754,0.04535 0.137481,0.08123 0.177734,0.105468 0.01429,0.0086 0.02404,0.01384 0.0332,0.01953 -0.01009,0.0058 -0.02145,0.01053 -0.03711,0.01953 -0.04182,0.02404 -0.103126,0.05865 -0.181641,0.103516 -0.15703,0.08972 -0.383633,0.21836 -0.662109,0.376953 -0.556952,0.317185 -1.3235,0.752683 -2.164063,1.230468 -0.840567,0.477788 -1.610736,0.917818 -2.177734,1.240235 -0.5669984,0.322417 -0.9286547,0.525959 -0.9511721,0.539062 l -0.041016,0.02344 V 12 Z" />
</svg>
